<?xml version="1.0" encoding="UTF-8"?>
<!DOCTYPE svg PUBLIC "-//W3C//DTD SVG 1.1//EN" "http://www.w3.org/Graphics/SVG/1.1/DTD/svg11.dtd">
<!-- Creator: CorelDRAW 2018 (64-Bit) -->
<svg xmlns="http://www.w3.org/2000/svg" xml:space="preserve" width="44.423in" height="10.6824in" version="1.1" style="shape-rendering:geometricPrecision; text-rendering:geometricPrecision; image-rendering:optimizeQuality; fill-rule:evenodd; clip-rule:evenodd"
viewBox="0 0 16936.74 4072.79"
 xmlns:xlink="http://www.w3.org/1999/xlink">
 <defs>
  <style type="text/css">
   <![CDATA[
    .fil2 {fill:none;fill-rule:nonzero}
    .fil0 {fill:#878678}
    .fil1 {fill:#5B5A51}
   ]]>
  </style>
   <clipPath id="id0" style="clip-rule:nonzero">
    <path d="M16936.74 0l-16936.74 0 0 4072.79 16936.74 0 0 -4072.79z"/>
   </clipPath>
 </defs>
 <g id="Camada_x0020_1">
  <metadata id="CorelCorpID_0Corel-Layer"/>
  <g>
  </g>
  <g style="clip-path:url(#id0)">
   <g>
    <g id="_2794642741040">
     <polygon class="fil0" points="9023.54,-169.04 9195.15,-129.44 9102.74,1520.68 9089.54,3065.19 9023.54,4266.48 8812.32,4266.48 8997.13,1929.91 "/>
     <polygon class="fil0" points="7492.23,4266.49 7663.84,4226.89 7571.44,2576.76 7558.23,1032.25 7492.23,-169.04 7281.01,-169.04 7465.82,2167.53 "/>
     <path class="fil0" d="M6858.58 4240.08l250.82 -13.2 -132.01 -1438.9 0 -1518.11c0,-39.6 0,-79.2 0,-118.81l-66 -1293.69 -171.62 0 132.01 3049.42 -13.2 1333.29z"/>
     <polygon class="fil0" points="6781.94,4271.42 7032.63,4135.92 6203.55,1296.75 5859.14,-141.63 5673.78,-119.3 6212.95,2045.89 6486.95,2915.46 "/>
     <polygon class="fil0" points="7675.34,4282.84 7877.27,4281.45 7921.86,2864.97 8085.6,1458.01 8165.18,-139.94 7999.16,-185.39 7829.26,2578.22 "/>
     <polygon class="fil0" points="10647.26,4207.08 10858.47,4193.88 11003.68,2913.38 11056.49,1197.25 11254.5,-109.64 11043.28,-96.43 10871.67,2385.34 "/>
     <polygon class="fil0" points="15357.19,-135.38 15542.47,-135.88 15419.6,2229.79 15387.77,4233.31 15165.7,4191.58 15244.44,3045.8 "/>
     <polygon class="fil0" points="10568.75,4243.5 10791.68,4217.71 10571.31,2542.22 10443.81,1095.17 10260.38,-146.06 10012.75,-104.13 10324.37,1441.22 10507.35,2908.42 "/>
     <polygon class="fil0" points="9789.19,-195.44 10066.41,-169.04 10026.81,2589.96 10106.02,4292.88 9881.6,4253.28 9881.6,834.24 "/>
     <polygon class="fil0" points="16214.43,-210.32 16493.05,-150.5 16492.81,2807.25 16565.28,4284.51 16381.1,4315.02 16291.9,2085.49 16311.24,1173.98 "/>
     <polygon class="fil0" points="14415.87,-169.04 14587.48,-129.44 14495.07,1520.68 14481.87,3065.19 14415.87,4266.48 14204.65,4266.48 14389.46,1929.91 "/>
     <polygon class="fil0" points="14917.5,-188.84 14679.89,-122.84 14996.71,2438.15 15062.71,4286.28 15300.33,4286.28 "/>
     <polygon class="fil0" points="9313.95,-202.04 9445.97,-149.24 9353.56,1725.29 9234.74,3256.61 9234.75,4299.48 8997.13,4286.28 "/>
     <polygon class="fil0" points="15707.86,-185.4 15909.79,-184 15954.38,1232.48 16118.12,2639.43 16197.69,4237.38 16031.68,4282.83 15861.78,1519.22 "/>
     <path class="fil0" d="M14084.24 -120.77l244.72 56.55 -379.87 1394.12 -263.62 1495.05c-6.88,39 -13.75,78 -20.63,117l-289.65 1262.57 -169.01 -29.8 659.53 -2980.17 218.52 -1315.33z"/>
     <polygon class="fil0" points="12528.13,-169.04 12699.74,-129.44 12607.34,1520.68 12594.14,3065.19 12528.13,4266.48 12316.92,4266.48 12501.73,1929.91 "/>
     <path class="fil0" d="M11656.87 -142.64l250.82 13.2 -132.01 1438.9 0 1518.11c0,39.6 0,79.21 0,118.81l-66 1293.69 -171.62 0 132.01 -3049.42 -13.2 -1333.29z"/>
     <polygon class="fil0" points="11114.28,4312.68 11391.5,4246.68 11325.5,1289.66 11365.1,-188.84 11180.28,-215.25 11140.69,2015.71 11180.29,2926.57 "/>
     <polygon class="fil0" points="12711.25,-185.4 12913.18,-184 12957.76,1232.48 13121.5,2639.43 13201.08,4237.38 13035.07,4282.83 12865.16,1519.22 "/>
     <polygon class="fil0" points="5650.02,-109.63 5861.24,-96.43 6006.44,1184.07 6059.25,2900.19 6257.26,4207.08 6046.05,4193.88 5874.43,1712.11 "/>
     <polygon class="fil0" points="1865.4,4232.83 2050.68,4233.32 1927.81,1867.66 1895.98,-135.87 1673.9,-94.14 1752.64,1051.64 "/>
     <polygon class="fil0" points="5571.51,-146.05 5794.44,-120.27 5574.07,1555.23 5446.57,3002.27 5263.15,4243.5 5015.51,4201.57 5327.13,2656.23 5510.12,1189.03 "/>
     <polygon class="fil0" points="4791.95,4292.88 5069.17,4266.48 5029.57,1507.49 5108.78,-195.44 4884.36,-155.83 4884.36,3263.21 "/>
     <polygon class="fil0" points="3221.04,4312.69 3498.26,4246.69 3432.26,1289.68 3471.86,-188.83 3287.04,-215.24 3247.45,2015.73 3287.05,2926.58 "/>
     <polygon class="fil0" points="1652.11,4229.36 1814.23,4160.56 1436.69,2551.55 1155.49,1032.79 881.89,-138.78 673.88,-102.11 1261.62,2166.87 "/>
     <polygon class="fil0" points="1425.7,4286.28 1188.09,4220.29 1504.91,1659.3 1570.92,-188.83 1808.53,-188.84 "/>
     <polygon class="fil0" points="4316.72,4299.49 4448.73,4246.69 4356.32,2372.15 4237.51,840.84 4237.51,-202.04 3999.89,-188.84 "/>
     <polygon class="fil0" points="2216.07,4282.84 2418,4281.45 2462.58,2864.97 2626.32,1458.01 2705.9,-139.94 2539.89,-185.39 2369.98,2578.22 "/>
     <path class="fil0" d="M211.22 4240.08l250.82 -13.2 -132.01 -1438.9 0 -1518.11c0,-39.6 0,-79.2 0,-118.81l-66 -1293.69 -171.61 0 132.01 3049.42 -13.2 1333.29z"/>
     <polygon class="fil1" points="7654.45,-100.19 7471.5,-129.44 7225.61,2226.62 6946.01,4210.79 7171.87,4204.04 7271.97,3059.93 "/>
     <polygon class="fil1" points="6455.27,-195.44 6244.06,-116.24 6560.88,2246.74 6626.89,4292.88 6838.1,4279.69 "/>
     <polygon class="fil1" points="7603.5,-183.1 7373.33,-196.14 7941.1,2719.78 8138.18,4293.58 8324.77,4287.5 7969.52,1816.66 7747.88,863.81 "/>
     <polygon class="fil1" points="8303.44,4266.39 8132.2,4225.19 8239.97,2575.99 8267.55,1031.67 8344.73,-168.95 8555.94,-166.98 8349.38,2167.76 "/>
     <polygon class="fil1" points="14191.44,4207.08 13980.23,4193.88 13835.02,2913.38 13782.21,1197.25 13584.2,-109.64 13795.41,-96.43 13967.03,2385.34 "/>
     <polygon class="fil1" points="14389.46,4220.28 14204.65,4233.48 14165.04,1864.95 14059.44,-136.04 14283.85,-109.63 14283.85,1038.85 "/>
     <polygon class="fil1" points="11179.61,4222.82 10956.15,4243.52 10826.58,2558.57 10653.21,1116.3 10576.97,-136.09 10827.93,-146.08 10841.39,1430.31 10964.61,2903.73 "/>
     <polygon class="fil1" points="14877.24,-193.52 14601.58,-154.01 14739.43,1636.8 14786.09,4290.96 14968.82,4242.64 14833.74,839.37 "/>
     <polygon class="fil1" points="15722.76,4286.28 15498.34,4339.09 15551.14,1368.88 15471.94,-215.24 15656.75,-241.64 15735.95,2253.34 15683.15,3230.2 "/>
     <polygon class="fil1" points="15841.29,4255.06 15674.58,4198.27 15933.76,2566.01 16103.45,1030.79 16290.88,-157.62 16501.01,-136.21 16080.31,2169.59 "/>
     <polygon class="fil1" points="16462.01,4299.48 16211.19,4207.08 16528.02,1646.09 16594.02,-202.04 16844.84,-175.64 "/>
     <polygon class="fil1" points="9796.84,4292.35 9658.61,4259.08 9447.33,2528.95 9359.55,914.28 9228.18,-173.81 9465.23,-194.9 "/>
     <polygon class="fil1" points="8485.69,4228.97 8297.56,4155.59 8553.55,2779.83 8902.83,1407.13 9398.91,-113.95 9570.21,-97.15 8742.4,2545.04 "/>
     <path class="fil1" d="M8763.32 -139.05l-249.27 30.84 233.09 1426.02 106.99 1514.34c2.79,39.51 5.58,79.01 8.37,118.51l157.01 1285.82 171.19 -12.09 -346.59 -3032.53 -80.79 -1330.91z"/>
     <polygon class="fil1" points="10581.31,-92.91 10398.3,-121.85 10156.53,2234.64 9880.39,4219.29 10106.24,4212.15 10204.34,3067.87 "/>
     <polygon class="fil1" points="12332.25,4172.4 12120.69,4177.66 11864.43,2914.69 11662.26,1209.7 11351.09,-74.96 11562.66,-80.22 11949.92,2377.16 "/>
     <polygon class="fil1" points="12501.72,4220.28 12316.91,4233.48 12277.31,1864.95 12171.7,-136.04 12396.12,-109.63 12396.12,1038.85 "/>
     <polygon class="fil1" points="11378.29,4292.88 11167.08,4213.68 11483.9,1850.71 11549.91,-195.44 11761.12,-182.24 "/>
     <polygon class="fil1" points="12639.41,4280.55 12409.23,4293.58 12977,1377.66 13174.08,-196.14 13360.68,-190.05 13005.42,2280.78 12783.79,3233.64 "/>
     <polygon class="fil1" points="13339.34,-168.94 13168.11,-127.74 13275.87,1521.45 13303.45,3065.77 13380.64,4266.39 13591.85,4264.43 13385.29,1929.68 "/>
     <polygon class="fil1" points="699.65,-109.63 488.43,-96.43 343.22,1184.07 290.42,2900.19 92.4,4207.08 303.62,4193.88 475.23,1712.11 "/>
     <polygon class="fil1" points="1108.88,-122.83 924.07,-136.03 884.47,2232.49 778.86,4233.48 1003.27,4207.08 1003.27,3058.6 "/>
     <polygon class="fil1" points="6182.37,-125.37 5958.91,-146.07 5829.35,1538.88 5655.97,2981.14 5579.73,4233.54 5830.7,4243.53 5844.15,2667.14 5967.38,1193.71 "/>
     <polygon class="fil1" points="1385.44,4290.97 1109.79,4251.46 1247.64,2460.65 1294.3,-193.52 1477.03,-145.2 1341.95,3258.07 "/>
     <polygon class="fil1" points="2230.96,-188.84 2006.55,-241.64 2059.35,2728.57 1980.14,4312.68 2164.96,4339.09 2244.16,1844.1 2191.35,867.24 "/>
     <polygon class="fil1" points="2349.49,-157.62 2182.78,-100.82 2441.97,1531.44 2611.66,3066.65 2799.08,4255.07 3009.21,4233.66 2588.52,1927.86 "/>
     <polygon class="fil1" points="2970.21,-202.04 2719.4,-109.63 3036.22,2451.36 3102.23,4299.49 3353.05,4273.09 "/>
     <polygon class="fil1" points="4799.6,-194.91 4661.37,-161.63 4450.1,1568.5 4362.31,3183.16 4230.94,4271.25 4467.99,4292.35 "/>
     <polygon class="fil1" points="3749.07,-175.64 3551.06,-136.03 3564.26,1263.27 3669.87,2675.78 3894.28,4259.89 4065.9,4273.09 3709.47,1527.29 "/>
     <path class="fil1" d="M3766.08 4236.49l-249.27 -30.84 233.09 -1426.02 106.99 -1514.34c2.79,-39.5 5.58,-79.01 8.37,-118.51l157.01 -1285.82 171.19 12.1 -346.59 3032.53 -80.79 1330.91z"/>
     <polygon class="fil1" points="5584.08,4190.36 5401.07,4219.3 5159.29,1862.81 4883.15,-121.85 5109,-114.71 5207.1,1029.58 "/>
     <polygon class="fil1" points="6679.68,-109.63 6468.46,-96.43 6323.25,1184.07 6270.45,2900.19 6072.43,4207.08 6283.65,4193.88 6455.26,1712.11 "/>
    </g>
   </g>
  </g>
  <polygon class="fil2" points="16936.74,0 -0,0 -0,4072.79 16936.74,4072.79 "/>
 </g>
</svg>
